# xmcd CD database file
#
# Track frame offsets:
#	150
#	20477
#	67860
#	89525
#	111197
#	126112
#	147152
#	192190
#	210581
#	231824
#
# Disc length: 3333 seconds
#
# Revision: 0
# Processed by: cddbd v1.5.2PL0 Copyright (c) Steve Scherf et al.
# Submitted via: CDex 1.70beta2
#
DISCID=860d030a
DTITLE=Henning Sieverts - Symmethree
DYEAR=2012
DGENRE=Jazz
TTITLE0=Symmethree
TTITLE1=Nine O. M.
TTITLE2=One For Paul
TTITLE3=À La Seurat
TTITLE4=Nine On Twelve
TTITLE5=Coffee To Stay
TTITLE6=New Torn Barn
TTITLE7=Happy Birthday
TTITLE8=Deep, Deep
TTITLE9=Walking On The Other Side
EXTD=YEAR: 2012
EXTT0=
EXTT1=
EXTT2=
EXTT3=
EXTT4=
EXTT5=
EXTT6=
EXTT7=
EXTT8=
EXTT9=
PLAYORDER=
